
<svg width="430" height="1180" viewBox="0 0 430 1180" xmlns="http://www.w3.org/2000/svg">
  <style>
    .title{font:900 34px Arial,sans-serif;fill:#146c5c}.h{font:900 19px Arial,sans-serif;fill:#1c1917}.txt{font:700 14px Arial,sans-serif;fill:#57534e}.small{font:700 12px Arial,sans-serif;fill:#78716c}.num{font:900 28px Arial,sans-serif;fill:#1c1917}.green{fill:#167865}.red{fill:#ef4444}.white{fill:#fff}.card{fill:#fff;stroke:#e7e0d5;stroke-width:1}.pill{fill:#e9f5ef}
  </style>
  <defs><filter id="s"><feDropShadow dx="0" dy="10" stdDeviation="10" flood-color="#201f1b" flood-opacity=".10"/></filter></defs>
  <rect width="430" height="1180" fill="#f5f0e7"/><rect width="430" height="1180" fill="#f8f4ec"/>
  <rect x="151" y="12" width="128" height="6" rx="3" fill="#292524" opacity=".82"/>
  <text x="18" y="62" class="title">Japan Life</text><text x="20" y="90" class="txt">在日生活工具箱</text><text x="309" y="50" class="txt"><tspan fill="#146c5c">中文</tspan> | 日本語</text><rect x="316" y="62" width="92" height="38" rx="19" class="white" stroke="#e7e0d5"/><circle cx="338" cy="81" r="7" fill="#167865"/><text x="354" y="87" class="txt">Tokyo</text>
  <rect x="16" y="120" width="398" height="256" rx="28" class="card" filter="url(#s)"/><text x="36" y="154" class="h">今日汇率</text><text x="340" y="153" class="small">09:30</text>
  <line x1="36" y1="170" x2="394" y2="170" stroke="#f2eee7"/><text x="36" y="202" class="small">JPY/CNY</text><text x="36" y="232" class="num">0.0488</text><text x="160" y="224" class="txt green">▼ 0.12%</text><polyline points="294,226 304,221 315,224 326,215 337,219 349,209 360,214 374,205 391,211" fill="none" stroke="#167865" stroke-width="3" stroke-linecap="round"/>
  <line x1="36" y1="249" x2="394" y2="249" stroke="#f2eee7"/><text x="36" y="280" class="small">JPY/HKD</text><text x="36" y="310" class="num">0.0515</text><text x="160" y="302" class="txt red">▲ 0.08%</text><polyline points="294,306 304,301 315,304 326,295 337,299 349,289 360,294 374,285 391,291" fill="none" stroke="#ef4444" stroke-width="3" stroke-linecap="round"/>
  <text x="36" y="342" class="small">JPY/USD</text><text x="36" y="368" class="num">0.0065</text><text x="160" y="360" class="txt green">▼ 0.09%</text><polyline points="294,360 304,355 315,358 326,349 337,353 349,343 360,348 374,339 391,345" fill="none" stroke="#167865" stroke-width="3" stroke-linecap="round"/>
  <rect x="16" y="390" width="191" height="142" rx="28" class="card" filter="url(#s)"/><text x="34" y="423" class="txt">本月预计到手</text><text x="34" y="474" font-family="Arial" font-size="30" font-weight="900" fill="#146c5c">¥246,500</text><text x="34" y="501" class="small green">+¥8,120</text>
  <rect x="223" y="390" width="191" height="142" rx="28" class="card" filter="url(#s)"/><text x="241" y="423" class="txt">本周工时</text><text x="241" y="474" class="num">18 <tspan fill="#78716c" font-size="19">/ 28h</tspan></text><rect x="241" y="491" width="138" height="8" rx="4" fill="#d8eee6"/><rect x="241" y="491" width="88" height="8" rx="4" fill="#167865"/>
  <text x="18" y="574" class="h">常用工具</text>
  <rect x="16" y="592" width="126" height="94" rx="24" class="white" filter="url(#s)"/><circle cx="50" cy="624" r="22" fill="#e9f5ef"/><text x="34" y="662" font-family="Arial" font-size="14" font-weight="900" fill="#1c1917">工资计算</text><rect x="152" y="592" width="126" height="94" rx="24" class="white" filter="url(#s)"/><circle cx="186" cy="624" r="22" fill="#e9f5ef"/><text x="170" y="662" font-family="Arial" font-size="14" font-weight="900" fill="#1c1917">房租评估</text><rect x="288" y="592" width="126" height="94" rx="24" class="white" filter="url(#s)"/><circle cx="322" cy="624" r="22" fill="#e9f5ef"/><text x="306" y="662" font-family="Arial" font-size="14" font-weight="900" fill="#1c1917">汇率换算</text><rect x="16" y="700" width="126" height="94" rx="24" class="white" filter="url(#s)"/><circle cx="50" cy="732" r="22" fill="#e9f5ef"/><text x="34" y="770" font-family="Arial" font-size="14" font-weight="900" fill="#1c1917">日本假期</text><rect x="152" y="700" width="126" height="94" rx="24" class="white" filter="url(#s)"/><circle cx="186" cy="732" r="22" fill="#e9f5ef"/><text x="170" y="770" font-family="Arial" font-size="14" font-weight="900" fill="#1c1917">打工时间</text><rect x="288" y="700" width="126" height="94" rx="24" class="white" filter="url(#s)"/><circle cx="322" cy="732" r="22" fill="#e9f5ef"/><text x="306" y="770" font-family="Arial" font-size="14" font-weight="900" fill="#1c1917">生活成本</text>
  <text x="18" y="840" class="h">地区数据</text>
  <rect x="16" y="858" width="398" height="78" rx="24" class="card" filter="url(#s)"/><text x="38" y="889" class="h">池袋</text><text x="124" y="889" class="small">Ikebukuro</text><text x="38" y="916" class="small">房租 ¥88,000</text><text x="222" y="916" class="small">时薪 ¥1,150</text><rect x="322" y="880" width="70" height="26" rx="13" class="pill"/><text x="337" y="898" class="small green">friendly</text><rect x="16" y="952" width="398" height="78" rx="24" class="card" filter="url(#s)"/><text x="38" y="983" class="h">高田马场</text><text x="124" y="983" class="small">Takadanobaba</text><text x="38" y="1010" class="small">房租 ¥76,000</text><text x="222" y="1010" class="small">时薪 ¥1,100</text><rect x="322" y="974" width="70" height="26" rx="13" class="pill"/><text x="337" y="992" class="small green">friendly</text><rect x="16" y="1046" width="398" height="78" rx="24" class="card" filter="url(#s)"/><text x="38" y="1077" class="h">板桥</text><text x="124" y="1077" class="small">Itabashi</text><text x="38" y="1104" class="small">房租 ¥73,000</text><text x="222" y="1104" class="small">时薪 ¥1,050</text><rect x="322" y="1068" width="70" height="26" rx="13" class="pill"/><text x="337" y="1086" class="small green">friendly</text>
  <rect x="0" y="1104" width="430" height="76" fill="#ffffff" opacity=".95"/><line x1="0" y1="1104" x2="430" y2="1104" stroke="#e7e0d5"/><text x="45" y="1150" class="small green">首页</text><text x="126" y="1150" class="small">工具</text><text x="207" y="1150" class="small">地区</text><text x="288" y="1150" class="small">店铺</text><text x="369" y="1150" class="small">我的</text>
</svg>