<svg xmlns="http://www.w3.org/2000/svg" viewBox="0 0 220 160">
  <defs>
    <linearGradient id="paper" x1="0" x2="1" y1="0" y2="1">
      <stop offset="0" stop-color="#faf7ef"/>
      <stop offset="1" stop-color="#dceee8"/>
    </linearGradient>
  </defs>
  <rect width="220" height="160" rx="22" fill="url(#paper)"/>
  <circle cx="78" cy="67" r="48" fill="#fff" stroke="#d9ded8" stroke-width="3"/>
  <circle cx="78" cy="67" r="4" fill="#1f7a66"/>
  <path d="M78 67V36M78 67l25 15" stroke="#1f7a66" stroke-width="7" stroke-linecap="round"/>
  <path d="M41 107c39-11 75-11 113-2" stroke="#cfd8d1" stroke-width="5" stroke-linecap="round"/>
  <rect x="124" y="44" width="66" height="82" rx="12" fill="#fff" stroke="#d9ded8" stroke-width="3"/>
  <path d="M139 64h35M139 82h30M139 100h22" stroke="#7c8b84" stroke-width="5" stroke-linecap="round"/>
  <path d="M160 126l-19 25 33-17 19-25z" fill="#d5aa7d"/>
  <path d="M160 126l33-17" stroke="#8a5b35" stroke-width="3"/>
  <circle cx="178" cy="34" r="13" fill="#1f7a66" opacity=".9"/>
  <path d="M172 34h12" stroke="#fff" stroke-width="4" stroke-linecap="round"/>
</svg>
